<?xml version="1.0" encoding="UTF-8"?>
<svg version="1.1" xmlns="http://www.w3.org/2000/svg" width="360" height="360">
<path d="M0 0 C1.56302622 1.31187329 3.12550046 2.62440445 4.6875 3.9375 C19.01582391 15.53344586 35.83322985 19.71826376 54 18 C67.67443084 15.98230426 77.9313488 9.93878383 88.3125 1.1796875 C99.4634446 -7.86424722 110.65742872 -11.37339094 125 -10 C137.43915893 -7.62254983 147.67606778 -1.40670981 155 9 C161.97770312 20.96973009 164.29903989 33.14697188 161.125 46.75 C156.8714694 58.61511168 149.21725105 67.88266917 138.0625 73.75 C127.37591272 78.73280156 116.09434505 79.87135097 104.6875 76.375 C97.18255058 73.53206552 91.40590649 69.18492464 85.3125 64.0625 C70.98417609 52.46655414 54.16677015 48.28173624 36 50 C22.32556916 52.01769574 12.0686512 58.06121617 1.6875 66.8203125 C-9.4634446 75.86424722 -20.65742872 79.37339094 -35 78 C-47.43915893 75.62254983 -57.67606778 69.40670981 -65 59 C-71.97770312 47.03026991 -74.29903989 34.85302812 -71.125 21.25 C-66.8714694 9.38488832 -59.21725105 0.11733083 -48.0625 -5.75 C-31.5389905 -13.454365 -14.32991459 -11.1114311 0 0 Z " fill="#0A8DB7" transform="translate(135,146)"/>
<path d="M0 0 C8.63049507 1.99165271 16.05978101 8.81944914 21 16 C27.90889629 28.05218575 30.31378267 40.08378856 27.125 53.75 C22.8714694 65.61511168 15.21725105 74.88266917 4.0625 80.75 C-6.62408728 85.73280156 -17.90565495 86.87135097 -29.3125 83.375 C-35.79023842 80.93826038 -42.09550908 77.85673638 -46 72 C-41.15833214 72.45038771 -38.50331713 73.59972161 -35 77 C-35 77.66 -35 78.32 -35 79 C-34.34 79 -33.68 79 -33 79 C-33 78.34 -33 77.68 -33 77 C-28.71 77 -24.42 77 -20 77 C-20 78.32 -20 79.64 -20 81 C-17.0280615 79.87548273 -14.66559313 78.77706209 -12 77 C-9.99363529 77.29259485 -7.99285937 77.62633887 -6 78 C-5.01 77.67 -4.02 77.34 -3 77 C-0.3125 77.4375 -0.3125 77.4375 2 78 C2.33 75.36 2.66 72.72 3 70 C5.31 69.67 7.62 69.34 10 69 C10.82638376 66.10765685 11 64.11257569 11 61 C13.64 60.67 16.28 60.34 19 60 C19.06058594 59.37351563 19.12117188 58.74703125 19.18359375 58.1015625 C19.30927734 56.87566406 19.30927734 56.87566406 19.4375 55.625 C19.55931641 54.40683594 19.55931641 54.40683594 19.68359375 53.1640625 C20 51 20 51 21 49 C21.66 49 22.32 49 23 49 C22.505 47.02 22.505 47.02 22 45 C22.66 44.67 23.32 44.34 24 44 C24.73075648 41.6859378 25.40138258 39.35171131 26 37 C24.35 37 22.7 37 21 37 C21.226875 36.071875 21.45375 35.14375 21.6875 34.1875 C21.790625 33.135625 21.89375 32.08375 22 31 C21.0206121 29.97980427 20.02104551 28.97850195 19 28 C19.375 25.5625 19.375 25.5625 20 23 C19.55228715 20.0450952 18.50984385 17.57561597 17 15 C16.34 14.67 15.68 14.34 15 14 C15 13.01 15 12.02 15 11 C14.0409375 10.8453125 14.0409375 10.8453125 13.0625 10.6875 C12.381875 10.460625 11.70125 10.23375 11 10 C10.505 8.515 10.505 8.515 10 7 C6.76693609 5.38346804 3.54971796 4.60852308 0 4 C0 2.68 0 1.36 0 0 Z " fill="#1568B2" transform="translate(269,139)"/>
<path d="M0 0 C6.59398916 5.20727041 6.59398916 5.20727041 9.29296875 7.90625 C7.97296875 7.90625 6.65296875 7.90625 5.29296875 7.90625 C5.29296875 7.24625 5.29296875 6.58625 5.29296875 5.90625 C3.17351568 5.35676217 1.07215107 4.86557306 -1.08203125 4.46875 C-4.0476298 3.8332646 -6.84536563 2.90450545 -9.70703125 1.90625 C-9.70703125 -0.07375 -9.70703125 -2.05375 -9.70703125 -4.09375 C-10.75890625 -4.0525 -11.81078125 -4.01125 -12.89453125 -3.96875 C-16.44713298 -4.08522875 -18.55569766 -4.56583068 -21.70703125 -6.09375 C-22.03703125 -5.43375 -22.36703125 -4.77375 -22.70703125 -4.09375 C-24.02703125 -4.42375 -25.34703125 -4.75375 -26.70703125 -5.09375 C-27.20203125 -7.07375 -27.20203125 -7.07375 -27.70703125 -9.09375 C-28.03703125 -8.10375 -28.36703125 -7.11375 -28.70703125 -6.09375 C-29.36703125 -6.09375 -30.02703125 -6.09375 -30.70703125 -6.09375 C-30.70703125 -6.75375 -30.70703125 -7.41375 -30.70703125 -8.09375 C-31.69703125 -8.09375 -32.68703125 -8.09375 -33.70703125 -8.09375 C-34.03703125 -6.77375 -34.36703125 -5.45375 -34.70703125 -4.09375 C-39.04036458 -4.09375 -43.37369792 -4.09375 -47.70703125 -4.09375 C-50.16981926 -1.63096199 -50.7047438 0.61301982 -51.70703125 3.90625 C-53.68703125 3.90625 -55.66703125 3.90625 -57.70703125 3.90625 C-57.70703125 6.54625 -57.70703125 9.18625 -57.70703125 11.90625 C-58.28453125 11.65875 -58.86203125 11.41125 -59.45703125 11.15625 C-61.83521539 10.64405393 -61.83521539 10.64405393 -63.89453125 12.40625 C-66.19077745 15.57348613 -66.35653139 18.05075152 -66.70703125 21.90625 C-67.03703125 22.89625 -67.36703125 23.88625 -67.70703125 24.90625 C-68.36703125 24.90625 -69.02703125 24.90625 -69.70703125 24.90625 C-69.70703125 25.89625 -69.70703125 26.88625 -69.70703125 27.90625 C-71.19203125 28.40125 -71.19203125 28.40125 -72.70703125 28.90625 C-73.36703125 28.24625 -74.02703125 27.58625 -74.70703125 26.90625 C-74.21964851 15.20906425 -67.78959043 5.41771981 -59.39453125 -2.34375 C-40.54019529 -17.56249652 -18.07507514 -13.98014469 0 0 Z " fill="#13AEAF" transform="translate(137.70703125,148.09375)"/>
<path d="M0 0 C2.0625 0.4375 2.0625 0.4375 4 1 C4.84681133 6.08086796 5.09038099 10.84828377 5 16 C6.423125 15.9690625 6.423125 15.9690625 7.875 15.9375 C11 16 11 16 13 17 C13 18.98 13 20.96 13 23 C15.64 23.99 18.28 24.98 21 26 C21 27.65 21 29.3 21 31 C24.71861413 31.92965353 28.11108712 31.96768102 31.9296875 31.90234375 C35.1620241 32.05481246 37.93900886 32.97966962 41 34 C39.02 34.495 39.02 34.495 37 35 C37 35.66 37 36.32 37 37 C40.96 37.33 44.92 37.66 49 38 C46.23703927 40.76296073 44.5522191 40.33201091 40.6875 40.375 C27.71655748 40.14930294 17.4304793 35.99424764 8.00390625 27.12109375 C2.51827495 21.28155075 -1.93887852 14.05125924 -3 6 C-1.6 1.6 -1.6 1.6 0 0 Z " fill="#0E9FB2" transform="translate(67,184)"/>
<path d="M0 0 C3.61167805 1.68544976 5.58230924 3.51070511 8.1875 6.5625 C12.85393117 10.60674035 17.60669035 10.01823027 23.5 9.9375 C28.09984312 9.8803985 31.67846864 10.46345552 36 12 C34.68 12.33 33.36 12.66 32 13 C32 13.66 32 14.32 32 15 C35.96 15.33 39.92 15.66 44 16 C41.23703927 18.76296073 39.5522191 18.33201091 35.6875 18.375 C22.14422936 18.13934432 11.65987063 13.42572981 1.875 4.1875 C0 2 0 2 0 0 Z " fill="#1A94B1" transform="translate(72,206)"/>
<path d="M0 0 C8.63329132 1.992298 16.05579442 8.82015364 21 16 C23.76542862 20.77392421 26.36825058 25.44963013 27 31 C25.5625 34.3125 25.5625 34.3125 24 37 C23.01 37 22.02 37 21 37 C21.226875 36.071875 21.45375 35.14375 21.6875 34.1875 C21.790625 33.135625 21.89375 32.08375 22 31 C21.0206121 29.97980427 20.02104551 28.97850195 19 28 C19.375 25.5625 19.375 25.5625 20 23 C19.55228715 20.0450952 18.50984385 17.57561597 17 15 C16.34 14.67 15.68 14.34 15 14 C15 13.01 15 12.02 15 11 C14.0409375 10.8453125 14.0409375 10.8453125 13.0625 10.6875 C12.0415625 10.3471875 12.0415625 10.3471875 11 10 C10.67 9.01 10.34 8.02 10 7 C6.76693609 5.38346804 3.54971796 4.60852308 0 4 C0 2.68 0 1.36 0 0 Z " fill="#1270B4" transform="translate(269,139)"/>
<path d="M0 0 C4.84166786 0.45038771 7.49668287 1.59972161 11 5 C11 5.66 11 6.32 11 7 C11.66 7 12.32 7 13 7 C13 6.34 13 5.68 13 5 C15.16874252 5.50603992 16.99967627 5.99983813 19 7 C19 7.66 19 8.32 19 9 C28.32582967 11.24247049 38.57493111 10.32281669 48 9 C40.60206922 13.93195385 31.59825476 13.74686252 23 13 C14.38866728 11.18055875 5.03537351 7.55306026 0 0 Z " fill="#236EB0" transform="translate(223,211)"/>
<path d="M0 0 C1.41655793 -0.0272415 2.83327045 -0.04650467 4.25 -0.0625 C5.43335938 -0.07990234 5.43335938 -0.07990234 6.640625 -0.09765625 C8.90691002 -0.00385306 10.8288895 0.36758937 13 1 C13 2.98 13 4.96 13 7 C15.92824652 7.97608217 17.95613276 8.08226668 21 8 C21 9.98 21 11.96 21 14 C20.278125 13.67 19.55625 13.34 18.8125 13 C16.119744 11.81457888 16.119744 11.81457888 13.625 12.25 C9.93105343 11.89819557 8.3055057 9.99485901 5.6484375 7.5234375 C3.94470861 5.87758459 3.94470861 5.87758459 1.5625 4.3125 C1.046875 3.879375 0.53125 3.44625 0 3 C0 2.01 0 1.02 0 0 Z " fill="#0877BA" transform="translate(211,200)"/>
<path d="M0 0 C3.36949443 1.68474722 4.87944386 2.8191658 7 6 C7.99 6.33 8.98 6.66 10 7 C15 12.46511628 15 12.46511628 15 15 C12.64561267 16.42944945 11.51967567 17.08661261 8.75 16.625 C7.88375 16.315625 7.88375 16.315625 7 16 C6.34 13.69 5.68 11.38 5 9 C2.69 9 0.38 9 -2 9 C-2 6.36 -2 3.72 -2 1 C-1.34 0.67 -0.68 0.34 0 0 Z " fill="#077CBA" transform="translate(274,143)"/>
<path d="M0 0 C1.32 0 2.64 0 4 0 C1.66667195 10.44442081 -3.32241233 18.65054561 -12 25 C-12 24.34 -12 23.68 -12 23 C-12.99 23 -13.98 23 -15 23 C-15.33 23.66 -15.66 24.32 -16 25 C-16 24.01 -16 23.02 -16 22 C-12.25 20.875 -12.25 20.875 -10 22 C-10 21.34 -10 20.68 -10 20 C-10.66 19.67 -11.32 19.34 -12 19 C-10.125 17.9375 -10.125 17.9375 -8 17 C-7.34 17.33 -6.68 17.66 -6 18 C-5.731875 17.443125 -5.46375 16.88625 -5.1875 16.3125 C-4 14 -4 14 -2.375 11.75 C-0.4873928 7.9747856 -0.86012589 5.19622343 -1 1 C-0.67 0.67 -0.34 0.34 0 0 Z " fill="#2968AB" transform="translate(292,190)"/>
<path d="M0 0 C3.3 0 6.6 0 10 0 C10 1.32 10 2.64 10 4 C12.9719385 2.87548273 15.33440687 1.77706209 18 0 C20.6875 0.875 20.6875 0.875 23 2 C23 2.66 23 3.32 23 4 C16.02639535 6.86096601 9.28701103 6.49477149 2 5 C2.33 4.01 2.66 3.02 3 2 C2.01 1.67 1.02 1.34 0 1 C0 0.67 0 0.34 0 0 Z " fill="#0F6CB7" transform="translate(239,216)"/>
<path d="M0 0 C2.0625 0.4375 2.0625 0.4375 4 1 C5.0024305 6.34629602 4.84888195 10.62374766 4 16 C1 15 1 15 -0.25 12.6875 C-1.0275526 9.90126985 -0.98726527 8.66561622 0 6 C-0.66 6 -1.32 6 -2 6 C-1.125 1.125 -1.125 1.125 0 0 Z " fill="#05A8B4" transform="translate(67,184)"/>
<path d="M0 0 C0.33 0.66 0.66 1.32 1 2 C-3.51821862 4.88663968 -3.51821862 4.88663968 -6.125 5.5 C-8.09678829 5.85170794 -8.09678829 5.85170794 -9.375 7.4375 C-12.35075282 10.29880078 -15.97056242 11 -20 11 C-7.1647351 -0.86845274 -7.1647351 -0.86845274 0 0 Z " fill="#1FB0AE" transform="translate(94,139)"/>
<path d="M0 0 C5.445 1.485 5.445 1.485 11 3 C10.67 4.32 10.34 5.64 10 7 C5.87863314 7.59947154 2.15267313 8 -2 8 C-2.33 7.01 -2.66 6.02 -3 5 C-2.505 4.54625 -2.01 4.0925 -1.5 3.625 C0.22609337 2.12364481 0.22609337 2.12364481 0 0 Z " fill="#199BB4" transform="translate(155,160)"/>
<path d="M0 0 C1.98 0.99 1.98 0.99 4 2 C4.99 2.33 5.98 2.66 7 3 C7 3.66 7 4.32 7 5 C8.65 5 10.3 5 12 5 C11.67 5.99 11.34 6.98 11 8 C9.54182203 8.16802051 8.0834516 8.33437143 6.625 8.5 C5.81289062 8.5928125 5.00078125 8.685625 4.1640625 8.78125 C2 9 2 9 0 9 C0 6.03 0 3.06 0 0 Z " fill="#09A0B4" transform="translate(136,151)"/>
<path d="M0 0 C3.61167805 1.68544976 5.58230924 3.51070511 8.1875 6.5625 C11.52511821 9.45510245 13.66053508 9.74473736 18 10 C18.33 10.99 18.66 11.98 19 13 C21.00016466 14.20882096 21.00016466 14.20882096 23 15 C19.36762541 16.21079153 18.77432105 15.76395223 15.4375 14.125 C9.52979023 11.03628576 4.51866495 6.893618 0 2 C0 1.34 0 0.68 0 0 Z " fill="#2E9CAC" transform="translate(72,206)"/>
<path d="M0 0 C7.85420753 1.81250943 14.45494177 7.4788295 19 14 C18.01 14 17.02 14 16 14 C15.67 13.01 15.34 12.02 15 11 C14.34 10.835 13.68 10.67 13 10.5 C12.34 10.335 11.68 10.17 11 10 C10.67 9.01 10.34 8.02 10 7 C6.76693609 5.38346804 3.54971796 4.60852308 0 4 C0 2.68 0 1.36 0 0 Z " fill="#2884B6" transform="translate(269,139)"/>
<path d="M0 0 C1.5625 1.0625 1.5625 1.0625 3 3 C2.74468291 6.57443924 2.13211641 9.60365077 1 13 C0.34 13 -0.32 13 -1 13 C-1.33 13.99 -1.66 14.98 -2 16 C-2.05423638 14.08364783 -2.09289963 12.16685075 -2.125 10.25 C-2.14820312 9.18265625 -2.17140625 8.1153125 -2.1953125 7.015625 C-2.00487687 4.07529894 -1.52670104 2.47638122 0 0 Z " fill="#0AAFB1" transform="translate(69,160)"/>
<path d="M0 0 C1.45922693 0.11409593 2.91740598 0.24165544 4.375 0.375 C5.59316406 0.47941406 5.59316406 0.47941406 6.8359375 0.5859375 C9 1 9 1 11 3 C10.34 3 9.68 3 9 3 C9 3.66 9 4.32 9 5 C7.68 4.67 6.36 4.34 5 4 C4.67 4.66 4.34 5.32 4 6 C2.68 5.67 1.36 5.34 0 5 C0 3.35 0 1.7 0 0 Z " fill="#08ACB3" transform="translate(111,138)"/>
<path d="M0 0 C1.32 0 2.64 0 4 0 C1.29384966 10.74259681 1.29384966 10.74259681 -3 14 C-2.67 13.34 -2.34 12.68 -2 12 C-0.71891481 8.15674443 -0.93262204 5.04267778 -1 1 C-0.67 0.67 -0.34 0.34 0 0 Z " fill="#1D64AA" transform="translate(292,190)"/>
<path d="M0 0 C0 0.66 0 1.32 0 2 C0.66 2 1.32 2 2 2 C2 2.66 2 3.32 2 4 C-2.455 4.495 -2.455 4.495 -7 5 C-7.33 3.68 -7.66 2.36 -8 1 C-5.29120665 -0.35439668 -2.99066732 -0.06501451 0 0 Z " fill="#1366B4" transform="translate(280,208)"/>
<path d="M0 0 C4.1970092 -0.35281338 6.06522073 0.35814568 9.3125 3 C10.00988281 3.556875 10.70726562 4.11375 11.42578125 4.6875 C11.94527344 5.120625 12.46476563 5.55375 13 6 C11.68 6.33 10.36 6.66 9 7 C9 6.34 9 5.68 9 5 C6.01758453 4.22678118 3.02419525 3.58803797 0 3 C0 2.01 0 1.02 0 0 Z " fill="#25A3B0" transform="translate(134,149)"/>
<path d="M0 0 C0.66 0.33 1.32 0.66 2 1 C0.84414715 4.91211733 -0.35534962 7.8745041 -3 11 C-3.6875 9.375 -3.6875 9.375 -4 7 C-1.72413793 1.72413793 -1.72413793 1.72413793 0 0 Z " fill="#0486B0" transform="translate(225,146)"/>
<path d="M0 0 C4.62 0 9.24 0 14 0 C10.85426323 2.09715785 8.98543749 2.52004559 5.3125 3.125 C3.82169922 3.37636719 3.82169922 3.37636719 2.30078125 3.6328125 C1.54152344 3.75398437 0.78226563 3.87515625 0 4 C0 2.68 0 1.36 0 0 Z " fill="#278EAF" transform="translate(160,194)"/>
<path d="M0 0 C2.875 -0.125 2.875 -0.125 6 0 C6.66 0.66 7.32 1.32 8 2 C6.68 2 5.36 2 4 2 C4 2.66 4 3.32 4 4 C-0.43076923 6.09230769 -0.43076923 6.09230769 -3.3125 5.625 C-3.869375 5.41875 -4.42625 5.2125 -5 5 C-4.030625 4.71125 -3.06125 4.4225 -2.0625 4.125 C1.10664203 3.35785318 1.10664203 3.35785318 2 1 C1.34 0.67 0.68 0.34 0 0 Z " fill="#129AB6" transform="translate(100,217)"/>
<path d="M0 0 C0.66 0 1.32 0 2 0 C2.66 0.99 3.32 1.98 4 3 C4.99 3.66 5.98 4.32 7 5 C7.99 6.485 7.99 6.485 9 8 C5.39426104 8 4.58663434 7.18292538 1.8125 5 C1.09707031 4.443125 0.38164062 3.88625 -0.35546875 3.3125 C-0.89816406 2.879375 -1.44085938 2.44625 -2 2 C-1.34 1.34 -0.68 0.68 0 0 Z " fill="#3380B9" transform="translate(215,203)"/>
<path d="M0 0 C0.66 0.33 1.32 0.66 2 1 C2.625 3.5625 2.625 3.5625 3 6 C-0.37462715 5.45276317 -2.08235 4.9451 -5 3 C-2.625 1.4375 -2.625 1.4375 0 0 Z " fill="#1980B2" transform="translate(206,195)"/>
<path d="M0 0 C-2.62198774 2.15377564 -4.64404172 3.40072174 -8 4 C-8.33 2.68 -8.66 1.36 -9 0 C-5.67465243 -1.10844919 -3.37817425 -0.84454356 0 0 Z " fill="#077FB8" transform="translate(208,194)"/>
<path d="M0 0 C0.33 0.99 0.66 1.98 1 3 C3.00016466 4.20882096 3.00016466 4.20882096 5 5 C1.37673261 6.2077558 0.35853631 5.54311128 -3 4 C-3 3.01 -3 2.02 -3 1 C-2.01 0.67 -1.02 0.34 0 0 Z " fill="#249BB5" transform="translate(90,216)"/>
<path d="M0 0 C0.99 0.33 1.98 0.66 3 1 C3 3.31 3 5.62 3 8 C2.01 8.495 2.01 8.495 1 9 C0.34 8.34 -0.32 7.68 -1 7 C-0.625 3.375 -0.625 3.375 0 0 Z " fill="#25B6B7" transform="translate(64,168)"/>
<path d="M0 0 C0.66 0.33 1.32 0.66 2 1 C0.8905928 4.48670834 -0.26337666 7.77484237 -2 11 C-2.33 11 -2.66 11 -3 11 C-2.25 3.375 -2.25 3.375 0 0 Z " fill="#17A8A4" transform="translate(68,159)"/>
<path d="M0 0 C0.66 0.33 1.32 0.66 2 1 C1.34 2.32 0.68 3.64 0 5 C-1.32 5 -2.64 5 -4 5 C-4 5.66 -4 6.32 -4 7 C-5.32 6.67 -6.64 6.34 -8 6 C-5.36 4.02 -2.72 2.04 0 0 Z " fill="#3092B3" transform="translate(221,149)"/>
<path d="M0 0 C2.97 0.495 2.97 0.495 6 1 C5.67 1.66 5.34 2.32 5 3 C4.34 3 3.68 3 3 3 C3 3.66 3 4.32 3 5 C1.68 5 0.36 5 -1 5 C-0.67 3.35 -0.34 1.7 0 0 Z " fill="#0385B4" transform="translate(241,138)"/>
<path d="M0 0 C3.25543229 0.34879632 4.01873107 1.02133261 6.25 3.5625 C6.8275 4.366875 7.405 5.17125 8 6 C7.01 6 6.02 6 5 6 C4.67 5.01 4.34 4.02 4 3 C1.98491642 2.26676204 1.98491642 2.26676204 0 2 C0 1.34 0 0.68 0 0 Z " fill="#227BB1" transform="translate(280,147)"/>
<path d="M0 0 C-2 3 -2 3 -4.125 3.6875 C-4.74375 3.790625 -5.3625 3.89375 -6 4 C-6 2.68 -6 1.36 -6 0 C-3.50907189 -1.24546405 -2.58919267 -0.7767578 0 0 Z " fill="#0F88AC" transform="translate(240,140)"/>
<path d="M0 0 C1.65 0.33 3.3 0.66 5 1 C3.35 2.65 1.7 4.3 0 6 C-0.33 5.34 -0.66 4.68 -1 4 C-1.66 3.67 -2.32 3.34 -3 3 C-2.01 3 -1.02 3 0 3 C0 2.01 0 1.02 0 0 Z " fill="#2491B3" transform="translate(140,204)"/>
</svg>
